REM DIRINDEX 1\2,1\3,1\4,1\5,1\6
REM DIRNAME cjc129,folder01,folder02,folder03,folder04,folder05
TITLE ""
FILE "DISC4Track23.mp3" MP3
  TRACK 01 AUDIO
    TITLE "0:"
    INDEX 01 00:00:00
  TRACK 02 AUDIO
    TITLE "3:cjc129_3530"
    INDEX 01 00:00:05
  TRACK 03 AUDIO
    TITLE "0:"
    INDEX 01 00:02:08
  TRACK 04 AUDIO
    TITLE "5:cjc129_3531"
    INDEX 01 00:02:38
  TRACK 05 AUDIO
    TITLE "0:"
    INDEX 01 00:04:58
  TRACK 06 AUDIO
    TITLE "4:cjc129_3532"
    INDEX 01 00:05:48
  TRACK 07 AUDIO
    TITLE "0:"
    INDEX 01 00:07:47
  TRACK 08 AUDIO
    TITLE "6:cjc129_3533"
    INDEX 01 00:08:07
  TRACK 09 AUDIO
    TITLE "0:"
    INDEX 01 00:11:60
  TRACK 10 AUDIO
    TITLE "3:cjc129_3534"
    INDEX 01 00:13:33
  TRACK 11 AUDIO
    TITLE "0:"
    INDEX 01 00:15:42
  TRACK 12 AUDIO
    TITLE "5:cjc129_3535"
    INDEX 01 00:15:74
  TRACK 13 AUDIO
    TITLE "0:"
    INDEX 01 00:17:37
  TRACK 14 AUDIO
    TITLE "4:cjc129_3536"
    INDEX 01 00:18:27
  TRACK 15 AUDIO
    TITLE "0:"
    INDEX 01 00:20:36
  TRACK 16 AUDIO
    TITLE "6:cjc129_3537"
    INDEX 01 00:20:71
  TRACK 17 AUDIO
    TITLE "0:"
    INDEX 01 00:25:68
  TRACK 18 AUDIO
    TITLE "3:cjc129_3538"
    INDEX 01 00:27:43
  TRACK 19 AUDIO
    TITLE "0:"
    INDEX 01 00:29:27
  TRACK 20 AUDIO
    TITLE "5:cjc129_3539"
    INDEX 01 00:29:58
  TRACK 21 AUDIO
    TITLE "0:"
    INDEX 01 00:32:25
  TRACK 22 AUDIO
    TITLE "4:cjc129_3540"
    INDEX 01 00:33:15
  TRACK 23 AUDIO
    TITLE "0:"
    INDEX 01 00:34:73
  TRACK 24 AUDIO
    TITLE "6:cjc129_3541"
    INDEX 01 00:35:31
  TRACK 25 AUDIO
    TITLE "0:"
    INDEX 01 00:39:29
  TRACK 26 AUDIO
    TITLE "3:cjc129_3542"
    INDEX 01 00:41:04
  TRACK 27 AUDIO
    TITLE "0:"
    INDEX 01 00:42:51
  TRACK 28 AUDIO
    TITLE "5:cjc129_3543"
    INDEX 01 00:43:07
  TRACK 29 AUDIO
    TITLE "0:"
    INDEX 01 00:46:11
  TRACK 30 AUDIO
    TITLE "4:cjc129_3544"
    INDEX 01 00:47:03
  TRACK 31 AUDIO
    TITLE "0:"
    INDEX 01 00:48:51
  TRACK 32 AUDIO
    TITLE "6:cjc129_3545"
    INDEX 01 00:49:06
  TRACK 33 AUDIO
    TITLE "0:"
    INDEX 01 00:53:41
  TRACK 34 AUDIO
    TITLE "3:cjc129_3546"
    INDEX 01 00:55:16
  TRACK 35 AUDIO
    TITLE "0:"
    INDEX 01 00:57:23
  TRACK 36 AUDIO
    TITLE "5:cjc129_3547"
    INDEX 01 00:57:50
  TRACK 37 AUDIO
    TITLE "0:"
    INDEX 01 01:00:41
  TRACK 38 AUDIO
    TITLE "4:cjc129_3548"
    INDEX 01 01:01:33
  TRACK 39 AUDIO
    TITLE "0:"
    INDEX 01 01:03:39
  TRACK 40 AUDIO
    TITLE "6:cjc129_3549"
    INDEX 01 01:03:67
  TRACK 41 AUDIO
    TITLE "0:"
    INDEX 01 01:10:18
  TRACK 42 AUDIO
    TITLE "3:cjc129_3550"
    INDEX 01 01:11:70
  TRACK 43 AUDIO
    TITLE "0:"
    INDEX 01 01:14:12
  TRACK 44 AUDIO
    TITLE "5:cjc129_3551"
    INDEX 01 01:14:41
  TRACK 45 AUDIO
    TITLE "0:"
    INDEX 01 01:17:16
  TRACK 46 AUDIO
    TITLE "4:cjc129_3552"
    INDEX 01 01:18:07
  TRACK 47 AUDIO
    TITLE "0:"
    INDEX 01 01:20:26
  TRACK 48 AUDIO
    TITLE "6:cjc129_3553"
    INDEX 01 01:20:53
  TRACK 49 AUDIO
    TITLE "0:"
    INDEX 01 01:25:57
  TRACK 50 AUDIO
    TITLE "3:cjc129_3554"
    INDEX 01 01:27:32
  TRACK 51 AUDIO
    TITLE "0:"
    INDEX 01 01:29:15
  TRACK 52 AUDIO
    TITLE "5:cjc129_3555"
    INDEX 01 01:29:45
  TRACK 53 AUDIO
    TITLE "0:"
    INDEX 01 01:34:26
  TRACK 54 AUDIO
    TITLE "4:cjc129_3556"
    INDEX 01 01:35:20
  TRACK 55 AUDIO
    TITLE "0:"
    INDEX 01 01:37:01
  TRACK 56 AUDIO
    TITLE "6:cjc129_3557"
    INDEX 01 01:37:34
  TRACK 57 AUDIO
    TITLE "0:"
    INDEX 01 01:41:71
  TRACK 58 AUDIO
    TITLE "2:cjc129_3558"
    INDEX 01 01:43:51
  TRACK 59 AUDIO
    TITLE "0:"
    INDEX 01 01:46:41
  TRACK 60 AUDIO
    TITLE "3:cjc129_3559"
    INDEX 01 01:47:54
  TRACK 61 AUDIO
    TITLE "0:"
    INDEX 01 01:48:61
  TRACK 62 AUDIO
    TITLE "5:cjc129_3560"
    INDEX 01 01:49:16
  TRACK 63 AUDIO
    TITLE "0:"
    INDEX 01 01:51:07
  TRACK 64 AUDIO
    TITLE "4:cjc129_3561"
    INDEX 01 01:51:74
  TRACK 65 AUDIO
    TITLE "0:"
    INDEX 01 01:53:04
  TRACK 66 AUDIO
    TITLE "6:cjc129_3562"
    INDEX 01 01:53:35
  TRACK 67 AUDIO
    TITLE "0:"
    INDEX 01 01:57:57
